# xmcd
#
# Track frame offsets:
#	150
#	17063
#	34296
#	47259
#	71186
#	90098
#	114119
#	143954
#	161083
#	179218
#	202867
#	216990
#
# Disc length: 3237 seconds
#
# Revision: 1
# Processed by: cddbd v1.5.2PL0 Copyright (c) Steve Scherf et al.
# Submitted via: audiograbber 1.83.01
#
DISCID=a40ca30c
DTITLE=Gennet 2004 - 2004
DYEAR=2004
DGENRE=Blues
TTITLE0=Blues At Midnight
TTITLE1=I Thought About You
TTITLE2=It´s Jazz In Me
TTITLE3=My Dear One´s
TTITLE4=Moute 66
TTITLE5=Amanda
TTITLE6=You´ve Changed
TTITLE7=Ain´t Misbehavin
TTITLE8=How High The Moon
TTITLE9=A Faded Love
TTITLE10=Feel A Little Heaven
TTITLE11=Misty
EXTD=
EXTT0=
EXTT1=
EXTT2=
EXTT3=
EXTT4=
EXTT5=
EXTT6=
EXTT7=
EXTT8=
EXTT9=
EXTT10=
EXTT11=
PLAYORDER=
